#!OML:ASF E:\Style4\Style4.ASF
:FULLY-SPECIFIED
:DEGREES
2145
root -0.277893 17.9617 -1.7466 -0.385743 -0.857463 1.41849
lowerback 3.27005 2.26856 0.469929
upperback -0.392439 3.04555 0.0852125
thorax -2.21395 1.51414 -0.331242
lowerneck -5.02505 -5.31224 -6.99699
upperneck 18.0454 -7.14702 3.8637
head 6.71389 -3.61707 1.85794
rclavicle 2.41104e-014 -3.97569e-016
rhumerus 59.7659 2.02755 -54.9874
rradius 52.9639
rwrist -48.7959
rhand -27.7793 8.16707
rfingers 7.12502
rthumb -1.17276 -21.8095
lclavicle 2.41104e-014 -3.97569e-016
lhumerus 62.2014 -10.1718 57.7841
lradius 61.2954
lwrist 55.8124
lhand -19.2354 42.9769
lfingers 7.12502
lthumb 7.07792 72.8385
rfemur -8.08263 2.07023 18.0148
rtibia 25.7583
rfoot -15.7392 -15.8869
rtoes -14.2857
lfemur -5.76199 -4.49953 -19.8654
ltibia 23.3007
lfoot -17.0614 10.8962
ltoes -15.562
2146
root -0.279119 17.9609 -1.74418 -0.38656 -0.822211 1.41852
lowerback 3.27138 2.25262 0.470893
upperback -0.399209 3.02445 0.0886123
thorax -2.22194 1.50358 -0.327479
lowerneck -5.04029 -5.30621 -7.02091
upperneck 18.0603 -7.13559 3.86469
head 6.7217 -3.61289 1.86256
rclavicle 1.45579e-014 7.15625e-015
rhumerus 59.7452 2.05266 -54.9022
rradius 53.025
rwrist -48.8698
rhand -27.8088 8.18816
rfingers 7.12502
rthumb -1.20124 -21.7882
lclavicle 1.45579e-014 7.15625e-015
lhumerus 62.1854 -10.162 57.7655
lradius 61.2997
lwrist 55.8201
lhand -19.2648 42.9413
lfingers 7.12502
lthumb 7.04953 72.8039
rfemur -8.07158 2.05264 18.0171
rtibia 25.7628
rfoot -15.7944 -15.8794
rtoes -14.0119
lfemur -5.75353 -4.54178 -19.8581
ltibia 23.2993
lfoot -17.1137 10.9178
ltoes -15.732
2147
root -0.281963 17.9602 -1.7434 -0.389487 -0.821166 1.41752
lowerback 3.29287 2.25535 0.462422
upperback -0.41065 3.02765 0.0757338
thorax -2.24547 1.50507 -0.33736
lowerneck -5.02612 -5.3046 -6.98336
upperneck 18.055 -7.14059 3.87566
head 6.7166 -3.6122 1.86003
rclavicle 7.27001e-015 -6.75868e-015
rhumerus 59.7088 2.05806 -54.7504
rradius 53.0614
rwrist -49.0086
rhand -27.8449 8.16219
rfingers 7.12502
rthumb -1.23608 -21.814
lclavicle 7.27001e-015 -6.75868e-015
lhumerus 62.1899 -10.1871 57.6975
lradius 61.2711
lwrist 55.7558
lhand -19.198 42.9057
lfingers 7.12502
lthumb 7.11401 72.7661
rfemur -8.07551 2.10043 18.0357
rtibia 25.7927
rfoot -15.8501 -15.9004
rtoes -13.8874
lfemur -5.7447 -4.51728 -19.8419
ltibia 23.288
lfoot -17.1275 10.9123
ltoes -15.8312
2148
root -0.283789 17.9607 -1.74177 -0.40961 -0.839466 1.41741
lowerback 3.32196 2.27526 0.454724
upperback -0.421776 3.05412 0.0758118
thorax -2.27342 1.51822 -0.335946
lowerneck -4.97929 -5.32392 -7.02989
upperneck 18.0875 -7.17685 3.93659
head 6.72489 -3.62876 1.88513
rclavicle -4.22328e-014 -1.19271e-015
rhumerus 59.6427 2.05308 -54.5742
rradius 53.1237
rwrist -49.1448
rhand -27.8485 8.21801
rfingers 7.12502
rthumb -1.23961 -21.7581
lclavicle -4.22328e-014 -1.19271e-015
lhumerus 62.1951 -10.2323 57.6994
lradius 61.2499
lwrist 55.6755
lhand -19.1232 42.9815
lfingers 7.12502
lthumb 7.18622 72.8395
rfemur -8.06628 2.11254 18.0454
rtibia 25.8363
rfoot -15.8724 -15.8953
rtoes -13.8976
lfemur -5.70383 -4.47138 -19.8362
ltibia 23.2701
lfoot -17.1161 10.9306
ltoes -15.954
2149
root -0.285254 17.9606 -1.73969 -0.390657 -0.863039 1.44943
lowerback 3.30261 2.28438 0.40449
upperback -0.426741 3.06414 0.0755879
thorax -2.27021 1.52387 -0.307984
lowerneck -5.02099 -5.33587 -7.06572
upperneck 18.1236 -7.19457 3.97527
head 6.7476 -3.63616 1.90045
rclavicle -2.2268e-014 0
rhumerus 59.6491 2.06974 -54.557
rradius 53.1304
rwrist -49.1663
rhand -27.8484 8.29595
rfingers 7.12502
rthumb -1.23951 -21.6802
lclavicle -2.2268e-014 0
lhumerus 62.1849 -10.2194 57.7051
lradius 61.2766
lwrist 55.6964
lhand -19.11 42.9128
lfingers 7.12502
lthumb 7.199 72.7703
rfemur -8.12181 2.11788 18.0211
rtibia 25.9085
rfoot -15.8739 -15.9295
rtoes -14.4031
lfemur -5.69644 -4.4727 -19.869
ltibia 23.2468
lfoot -17.1679 10.8971
ltoes -15.5825
2150
root -0.285583 17.9614 -1.73801 -0.390666 -0.869562 1.44968
lowerback 3.31618 2.28001 0.407627
upperback -0.443582 3.05856 0.0737234
thorax -2.2949 1.5209 -0.312419
lowerneck -5.03785 -5.33608 -7.03673
upperneck 18.1638 -7.19186 3.9383
head 6.76091 -3.63564 1.88341
rclavicle 1.67567e-014 -1.98785e-015
rhumerus 59.5966 2.10826 -54.4251
rradius 53.1989
rwrist -49.3114
rhand -27.9057 8.33724
rfingers 7.12502
rthumb -1.29481 -21.6386
lclavicle 1.67567e-014 -1.98785e-015
lhumerus 62.1639 -10.2152 57.6561
lradius 61.2624
lwrist 55.7694
lhand -19.1306 42.7764
lfingers 7.12502
lthumb 7.17908 72.6346
rfemur -8.13423 2.10807 18.0258
rtibia 25.9998
rfoot -15.9597 -15.8513
rtoes -14.0254
lfemur -5.66747 -4.46265 -19.8676
ltibia 23.2011
lfoot -17.1387 10.8734
ltoes -15.5652
2151
root -0.284785 17.9624 -1.73441 -0.398803 -0.860412 1.41841
lowerback 3.30816 2.26988 0.479889
upperback -0.449335 3.04774 0.0627482
thorax -2.29203 1.51452 -0.363131
lowerneck -5.01505 -5.33049 -7.00753
upperneck 18.1562 -7.1871 3.92813
head 6.75263 -3.63257 1.87652
rclavicle 3.80457e-014 -4.96962e-015
rhumerus 59.5648 2.14722 -54.327
rradius 53.2252
rwrist -49.3907
rhand -27.9114 8.36361
rfingers 7.12502
rthumb -1.30034 -21.6122
lclavicle 3.80457e-014 -4.96962e-015
lhumerus 62.161 -10.2178 57.6045
lradius 61.2644
lwrist 55.7889
lhand -19.0916 42.8185
lfingers 7.12502
lthumb 7.21675 72.6754
rfemur -8.07282 2.06312 18.0594
rtibia 26.0522
rfoot -16.0687 -15.6573
rtoes -12.9945
lfemur -5.63318 -4.47443 -19.8384
ltibia 23.1702
lfoot -17.119 10.8604
ltoes -15.6634
2152
root -0.285119 17.9616 -1.73162 -0.415495 -0.86209 1.51397
lowerback 3.31434 2.27568 0.391633
upperback -0.456166 3.0511 0.0261868
thorax -2.30509 1.51704 -0.352022
lowerneck -4.98691 -5.33246 -7.01925
upperneck 18.1552 -7.19739 3.96703
head 6.74975 -3.63574 1.89082
rclavicle 1.73393e-015 -4.77083e-015
rhumerus 59.5501 2.14401 -54.4277
rradius 53.1789
rwrist -49.2697
rhand -27.804 8.38122
rfingers 7.12502
rthumb -1.19665 -21.5952
lclavicle 1.73393e-015 -4.77083e-015
lhumerus 62.1597 -10.2427 57.5456
lradius 61.2909
lwrist 55.7933
lhand -19.0013 42.8618
lfingers 7.12502
lthumb 7.30386 72.7157
rfemur -8.0495 2.04117 17.9458
rtibia 26.0547
rfoot -16.1162 -15.5819
rtoes -12.7382
lfemur -5.59447 -4.47291 -19.9483
ltibia 23.1584
lfoot -17.1138 10.8423
ltoes -15.3658
2153
root -0.285248 17.9604 -1.72934 -0.414254 -0.863937 1.51481
lowerback 3.30162 2.27047 0.398432
upperback -0.45554 3.0443 0.0232777
thorax -2.29685 1.51358 -0.357848
lowerneck -5.00957 -5.33378 -6.99032
upperneck 18.1574 -7.19105 3.91097
head 6.75102 -3.63478 1.86804
rclavicle 2.22779e-015 -1.59028e-015
rhumerus 59.5947 2.14134 -54.6219
rradius 53.0928
rwrist -49.0623
rhand -27.744 8.40142
rfingers 7.12502
rthumb -1.13863 -21.5753
lclavicle 2.22779e-015 -1.59028e-015
lhumerus 62.1637 -10.2461 57.4662
lradius 61.3082
lwrist 55.8428
lhand -19.1184 42.7865
lfingers 7.12502
lthumb 7.19087 72.6443
rfemur -8.07934 2.07256 17.943
rtibia 26.005
rfoot -15.9942 -15.7872
rtoes -13.8561
lfemur -5.58882 -4.47528 -19.9502
ltibia 23.1637
lfoot -17.1595 10.8504
ltoes -15.1482
2154
root -0.286005 17.9597 -1.72761 -0.434238 -0.869988 1.44992
lowerback 3.30789 2.27001 0.465142
upperback -0.443109 3.04672 0.0375278
thorax -2.28488 1.51408 -0.380487
lowerneck -4.99593 -5.33404 -6.9884
upperneck 18.1092 -7.1934 3.92424
head 6.73362 -3.63491 1.87246
rclavicle -1.53977e-014 -1.98785e-015
rhumerus 59.6155 2.12816 -54.7108
rradius 53.1101
rwrist -48.9254
rhand -27.7287 8.18541
rfingers 7.12502
rthumb -1.12389 -21.7914
lclavicle -1.53977e-014 -1.98785e-015
lhumerus 62.1832 -10.2699 57.395
lradius 61.2721
lwrist 55.9557
lhand -19.2858 42.5472
lfingers 7.12502
lthumb 7.02927 72.4105
rfemur -8.05748 2.08284 18.0196
rtibia 25.949
rfoot -15.9013 -15.9146
rtoes -14.5439
lfemur -5.55365 -4.46669 -19.8765
ltibia 23.1529
lfoot -17.1807 10.8841
ltoes -15.5265
2155
root -0.286307 17.9597 -1.72404 -0.43388 -0.884212 1.44958
lowerback 3.27104 2.28167 0.481787
upperback -0.425793 3.06242 0.0275383
thorax -2.24486 1.52187 -0.398649
lowerneck -5.01145 -5.34423 -6.99559
upperneck 18.0863 -7.20884 3.94667
head 6.73096 -3.64083 1.87921
rclavicle 4.23642e-014 -1.98785e-015
rhumerus 59.6025 2.10393 -54.6969
rradius 53.1301
rwrist -48.8698
rhand -27.7663 7.95097
rfingers 7.12502
rthumb -1.16022 -22.0256
lclavicle 4.23642e-014 -1.98785e-015
lhumerus 62.2181 -10.3002 57.3128
lradius 61.2495
lwrist 56.0033
lhand -19.4192 42.4511
lfingers 7.12502
lthumb 6.90051 72.3186
rfemur -8.01561 2.06557 18.0177
rtibia 25.8982
rfoot -15.889 -15.8683
rtoes -14.407
lfemur -5.52974 -4.47375 -19.8796
ltibia 23.1408
lfoot -17.1764 10.9018
ltoes -15.6613
2156
root -0.286123 17.9594 -1.72134 -0.432898 -0.882158 1.54527
lowerback 3.25324 2.27983 0.389879
upperback -0.42625 3.05565 0.00357499
thorax -2.23889 1.51954 -0.370852
lowerneck -5.07099 -5.34833 -7.02062
upperneck 18.1742 -7.21195 3.95465
head 6.77115 -3.64264 1.88335
rclavicle -1.91041e-014 2.78299e-015
rhumerus 59.5985 2.12547 -54.6775
rradius 53.1313
rwrist -48.871
rhand -27.7414 7.95569
rfingers 7.12502
rthumb -1.13619 -22.021
lclavicle -1.91041e-014 2.78299e-015
lhumerus 62.2002 -10.2987 57.345
lradius 61.2306
lwrist 55.9469
lhand -19.4341 42.4339
lfingers 7.12502
lthumb 6.88607 72.3019
rfemur -8.00418 2.04558 17.9067
rtibia 25.8885
rfoot -15.8802 -15.8603
rtoes -14.4207
lfemur -5.50222 -4.48145 -19.9904
ltibia 23.1143
lfoot -17.1739 10.8791
ltoes -15.521
2157
root -0.285525 17.9582 -1.71889 -0.449302 -0.870375 1.60989
lowerback 3.24418 2.2795 0.346782
upperback -0.412203 3.05274 -0.0259703
thorax -2.22003 1.51856 -0.376136
lowerneck -5.1147 -5.35057 -7.00655
upperneck 18.2086 -7.21726 3.96742
head 6.79003 -3.64269 1.8833
rclavicle 2.19296e-014 3.18055e-015
rhumerus 59.597 2.11532 -54.6836
rradius 53.1777
rwrist -48.822
rhand -27.7587 7.70179
rfingers 7.12502
rthumb -1.15289 -22.2748
lclavicle 2.19296e-014 3.18055e-015
lhumerus 62.2317 -10.3156 57.2726
lradius 61.2021
lwrist 56.0589
lhand -19.5767 42.3416
lfingers 7.12502
lthumb 6.74845 72.2141
rfemur -7.98324 1.99602 17.8316
rtibia 25.9051
rfoot -15.8819 -15.8757
rtoes -14.7214
lfemur -5.45362 -4.49292 -20.0689
ltibia 23.0779
lfoot -17.1785 10.8679
ltoes -15.2099
